<?xml version="1.0" encoding="UTF-8" standalone="no"?>
<!-- Created with Inkscape (http://www.inkscape.org/) -->

<svg
   xmlns:dc="http://purl.org/dc/elements/1.1/"
   xmlns:cc="http://creativecommons.org/ns#"
   xmlns:rdf="http://www.w3.org/1999/02/22-rdf-syntax-ns#"
   xmlns:svg="http://www.w3.org/2000/svg"
   xmlns="http://www.w3.org/2000/svg"
   xmlns:sodipodi="http://sodipodi.sourceforge.net/DTD/sodipodi-0.dtd"
   xmlns:inkscape="http://www.inkscape.org/namespaces/inkscape"
   width="210mm"
   height="297mm"
   viewBox="0 0 210 297"
   version="1.1"
   id="svg830"
   inkscape:version="0.92.3 (2405546, 2018-03-11)"
   sodipodi:docname="A Platter.svg"
   inkscape:export-filename="/home/maastaar/Projects/Writings/Books/539kernel/book/Figures/bootloader-ch/a-platter.png"
   inkscape:export-xdpi="96.199997"
   inkscape:export-ydpi="96.199997">
  <defs
     id="defs824" />
  <sodipodi:namedview
     id="base"
     pagecolor="#ffffff"
     bordercolor="#666666"
     borderopacity="1.0"
     inkscape:pageopacity="0.0"
     inkscape:pageshadow="2"
     inkscape:zoom="0.76"
     inkscape:cx="113.81579"
     inkscape:cy="710.72729"
     inkscape:document-units="mm"
     inkscape:current-layer="layer1"
     showgrid="false"
     inkscape:window-width="1920"
     inkscape:window-height="974"
     inkscape:window-x="0"
     inkscape:window-y="40"
     inkscape:window-maximized="1" />
  <metadata
     id="metadata827">
    <rdf:RDF>
      <cc:Work
         rdf:about="">
        <dc:format>image/svg+xml</dc:format>
        <dc:type
           rdf:resource="http://purl.org/dc/dcmitype/StillImage" />
        <dc:title></dc:title>
      </cc:Work>
    </rdf:RDF>
  </metadata>
  <g
     inkscape:label="Layer 1"
     inkscape:groupmode="layer"
     id="layer1">
    <path
       style="opacity:1;fill:#cccccc;fill-opacity:1;stroke:#000000;stroke-width:0.79903269;stroke-linecap:butt;stroke-linejoin:bevel;stroke-miterlimit:4;stroke-dasharray:none;stroke-dashoffset:0;stroke-opacity:1"
       d="m 44.506382,69.163503 a 39.410354,5.9106215 0 0 0 -37.6576404,6.07818 39.410354,5.9106215 0 0 0 39.9717204,5.7366 39.410354,5.9106215 0 0 0 38.83173,-5.91023 l -0.0677,-0.34675 a 39.410354,5.9106215 0 0 0 -41.07812,-5.5578 z m 1.12758,2.51923 a 6.8279571,3.2006048 0 0 1 7.11688,3.00963 l 0.0119,0.18811 a 6.8279571,3.2006048 0 0 1 -6.72776,3.20032 6.8279571,3.2006048 0 0 1 -6.92567,-3.10627 6.8279571,3.2006048 0 0 1 6.52466,-3.29179 z"
       id="path819"
       inkscape:connector-curvature="0" />
    <path
       style="opacity:1;fill:#cccccc;fill-opacity:1;stroke:#000000;stroke-width:0.54500002;stroke-linecap:butt;stroke-linejoin:bevel;stroke-miterlimit:4;stroke-dasharray:none;stroke-dashoffset:0;stroke-opacity:1"
       d="M 125.33452,46.691831 A 30.635964,28.721219 0 0 0 95.041797,75.625465 30.635964,28.721219 0 0 0 125.79134,104.13225 30.635964,28.721219 0 0 0 156.31299,75.411526 l -0.003,-0.428398 A 30.635964,28.721219 0 0 0 125.33452,46.691831 Z m 0.44132,24.187155 a 4.8739038,5.3961077 0 0 1 4.92786,5.315436 l 5.3e-4,0.08062 a 4.8739038,5.3961077 0 0 1 -4.85551,5.396053 4.8739038,5.3961077 0 0 1 -4.89221,-5.356262 4.8739038,5.3961077 0 0 1 4.81934,-5.435843 z"
       id="path1390"
       inkscape:connector-curvature="0" />
    <text
       xml:space="preserve"
       style="font-style:normal;font-weight:normal;font-size:10.58333302px;line-height:125%;font-family:Sans;letter-spacing:0px;word-spacing:0px;fill:#000000;fill-opacity:1;stroke:none;stroke-width:0.26458332px;stroke-linecap:butt;stroke-linejoin:miter;stroke-opacity:1"
       x="36.902382"
       y="119.25568"
       id="text1397"><tspan
         sodipodi:role="line"
         id="tspan1395"
         x="36.902382"
         y="119.25568"
         style="stroke-width:0.26458332px">(A)</tspan></text>
    <text
       xml:space="preserve"
       style="font-style:normal;font-weight:normal;font-size:10.58333302px;line-height:125%;font-family:Sans;letter-spacing:0px;word-spacing:0px;fill:#000000;fill-opacity:1;stroke:none;stroke-width:0.26458332px;stroke-linecap:butt;stroke-linejoin:miter;stroke-opacity:1"
       x="119.35495"
       y="119.10252"
       id="text1401"><tspan
         sodipodi:role="line"
         id="tspan1399"
         x="119.35495"
         y="119.10252"
         style="stroke-width:0.26458332px">(B)</tspan></text>
  </g>
</svg>
