<?xml version="1.0" encoding="UTF-8" standalone="no"?>
<!-- Created with Inkscape (http://www.inkscape.org/) -->

<svg
   xmlns:dc="http://purl.org/dc/elements/1.1/"
   xmlns:cc="http://creativecommons.org/ns#"
   xmlns:rdf="http://www.w3.org/1999/02/22-rdf-syntax-ns#"
   xmlns:svg="http://www.w3.org/2000/svg"
   xmlns="http://www.w3.org/2000/svg"
   xmlns:sodipodi="http://sodipodi.sourceforge.net/DTD/sodipodi-0.dtd"
   xmlns:inkscape="http://www.inkscape.org/namespaces/inkscape"
   width="210mm"
   height="297mm"
   viewBox="0 0 210 297"
   version="1.1"
   id="svg8"
   inkscape:version="0.92.3 (2405546, 2018-03-11)"
   sodipodi:docname="platters.svg">
  <defs
     id="defs2" />
  <sodipodi:namedview
     id="base"
     pagecolor="#ffffff"
     bordercolor="#666666"
     borderopacity="1.0"
     inkscape:pageopacity="0.0"
     inkscape:pageshadow="2"
     inkscape:zoom="0.62"
     inkscape:cx="350"
     inkscape:cy="560"
     inkscape:document-units="mm"
     inkscape:current-layer="layer1"
     showgrid="false"
     inkscape:window-width="1920"
     inkscape:window-height="974"
     inkscape:window-x="0"
     inkscape:window-y="40"
     inkscape:window-maximized="1" />
  <metadata
     id="metadata5">
    <rdf:RDF>
      <cc:Work
         rdf:about="">
        <dc:format>image/svg+xml</dc:format>
        <dc:type
           rdf:resource="http://purl.org/dc/dcmitype/StillImage" />
        <dc:title></dc:title>
      </cc:Work>
    </rdf:RDF>
  </metadata>
  <g
     inkscape:label="Layer 1"
     inkscape:groupmode="layer"
     id="layer1">
    <path
       style="opacity:1;fill:#cccccc;fill-opacity:1;stroke:#000000;stroke-width:0.79903269;stroke-linecap:butt;stroke-linejoin:bevel;stroke-miterlimit:4;stroke-dasharray:none;stroke-dashoffset:0;stroke-opacity:1"
       d="m 99.830414,68.632035 a 39.410354,5.9106215 0 0 0 -37.657648,6.078183 39.410354,5.9106215 0 0 0 39.971724,5.7366 39.410354,5.9106215 0 0 0 38.83173,-5.910233 l -0.0677,-0.34675 a 39.410354,5.9106215 0 0 0 -41.078116,-5.5578 z m 1.127576,2.519227 a 6.827957,3.2006047 0 0 1 7.11688,3.009636 l 0.0119,0.188103 a 6.827957,3.2006047 0 0 1 -6.72775,3.20032 6.827957,3.2006047 0 0 1 -6.925676,-3.106269 6.827957,3.2006047 0 0 1 6.524666,-3.29179 z"
       id="path819"
       inkscape:connector-curvature="0" />
    <path
       inkscape:connector-curvature="0"
       id="path822"
       d="m 99.830414,88.211214 a 39.410354,5.9106215 0 0 0 -37.657648,6.078183 39.410354,5.9106215 0 0 0 39.971724,5.736603 39.410354,5.9106215 0 0 0 38.83173,-5.910236 l -0.0677,-0.34675 a 39.410354,5.9106215 0 0 0 -41.078116,-5.5578 z m 1.127576,2.519227 a 6.827957,3.2006047 0 0 1 7.11688,3.009636 l 0.0119,0.188103 a 6.827957,3.2006047 0 0 1 -6.72775,3.20032 6.827957,3.2006047 0 0 1 -6.925676,-3.106269 6.827957,3.2006047 0 0 1 6.524666,-3.29179 z"
       style="opacity:1;fill:#cccccc;fill-opacity:1;stroke:#000000;stroke-width:0.79903269;stroke-linecap:butt;stroke-linejoin:bevel;stroke-miterlimit:4;stroke-dasharray:none;stroke-dashoffset:0;stroke-opacity:1" />
    <path
       style="opacity:1;fill:#cccccc;fill-opacity:1;stroke:#000000;stroke-width:0.79903269;stroke-linecap:butt;stroke-linejoin:bevel;stroke-miterlimit:4;stroke-dasharray:none;stroke-dashoffset:0;stroke-opacity:1"
       d="m 99.830414,106.73206 a 39.410354,5.9106215 0 0 0 -37.657648,6.07818 39.410354,5.9106215 0 0 0 39.971724,5.7366 39.410354,5.9106215 0 0 0 38.83173,-5.91023 l -0.0677,-0.34675 a 39.410354,5.9106215 0 0 0 -41.078116,-5.5578 z m 1.127576,2.51923 a 6.827957,3.2006047 0 0 1 7.11688,3.00963 l 0.0119,0.1881 a 6.827957,3.2006047 0 0 1 -6.72775,3.20032 6.827957,3.2006047 0 0 1 -6.925676,-3.10626 6.827957,3.2006047 0 0 1 6.524666,-3.29179 z"
       id="path824"
       inkscape:connector-curvature="0" />
    <path
       style="opacity:1;fill:#cccccc;fill-opacity:1;stroke:#000000;stroke-width:0.24473958;stroke-linecap:butt;stroke-linejoin:bevel;stroke-miterlimit:4;stroke-dasharray:none;stroke-dashoffset:0;stroke-opacity:1"
       d="m 41.39449,17.480511 c 1.280238,97.620219 1.499557,133.994259 -8.255582,133.998639 -9.755141,0.004 -19.409803,-12.4647 -18.202262,-109.658142 0.01463,-1.177449 -3.756765,-23.080412 5.989372,-23.48687 L 41.39449,17.480511"
       id="path856"
       inkscape:connector-curvature="0"
       sodipodi:nodetypes="csssc" />
  </g>
</svg>
